<svg width="36.000000" height="36.000000" viewBox="0 0 36 36" fill="none" xmlns="http://www.w3.org/2000/svg" xmlns:xlink="http://www.w3.org/1999/xlink">
	<desc>
			Created with Pixso.
	</desc>
	<defs>
		<clipPath id="clip10_21">
			<rect id="Frame" width="36.000000" height="36.000000" fill="white" fill-opacity="0"/>
		</clipPath>
	</defs>
	<rect id="Frame" width="36.000000" height="36.000000" fill="#FFFFFF" fill-opacity="0"/>
	<g clip-path="url(#clip10_21)">
		<path id="Vector" d="M5.625 13.5L23.625 13.5C25.489 13.5 27 15.011 27 16.875L27 24.75C27 26.614 25.489 28.125 23.625 28.125L5.625 28.125C3.76105 28.125 2.25 26.614 2.25 24.75L2.25 16.875C2.25 15.011 3.76105 13.5 5.625 13.5Z" fill="#FF3D00" fill-opacity="1.000000" fill-rule="evenodd"/>
		<path id="Vector" d="M33.75 25.875L27 22.5L27 19.125L33.75 15.75L33.75 25.875Z" fill="#FF3D00" fill-opacity="1.000000" fill-rule="nonzero"/>
		<path id="Vector" d="M24.75 6.75C24.75 9.23529 22.7353 11.25 20.25 11.25C17.7647 11.25 15.75 9.23529 15.75 6.75C15.75 4.26471 17.7647 2.25 20.25 2.25C22.7353 2.25 24.75 4.26471 24.75 6.75Z" fill="#FF3D00" fill-opacity="1.000000" fill-rule="evenodd"/>
		<path id="Vector" d="M12.375 7.875C12.375 9.73895 10.864 11.25 9 11.25C7.13605 11.25 5.625 9.73895 5.625 7.875C5.625 6.01105 7.13605 4.5 9 4.5C10.864 4.5 12.375 6.01105 12.375 7.875Z" fill="#FF3D00" fill-opacity="1.000000" fill-rule="evenodd"/>
		<path id="Vector" d="M34.0459 15.2719C33.9642 15.2216 33.8712 15.1929 33.7755 15.1886C33.6797 15.1843 33.5844 15.2044 33.4985 15.2471L27.5625 18.2149L27.5625 16.875C27.5613 15.8311 27.1461 14.8303 26.4079 14.0921C25.6697 13.3539 24.6689 12.9387 23.625 12.9375L5.625 12.9375C4.58105 12.9387 3.58026 13.3539 2.8421 14.0921C2.10394 14.8303 1.68872 15.8311 1.6875 16.875L1.6875 24.75C1.68872 25.7939 2.10394 26.7947 2.8421 27.5329C3.58026 28.2711 4.58105 28.6863 5.625 28.6875L13.2672 28.6875L8.60229 33.3523C8.49988 33.4584 8.44318 33.6005 8.44446 33.748C8.44574 33.8954 8.50488 34.0366 8.60919 34.1409C8.71344 34.2451 8.85455 34.3043 9.00201 34.3055C9.14954 34.3068 9.29163 34.2501 9.39771 34.1477L14.625 28.9203L19.8523 34.1477C19.9584 34.2501 20.1005 34.3068 20.248 34.3055C20.3954 34.3043 20.5366 34.2451 20.6408 34.1409C20.7451 34.0366 20.8043 33.8954 20.8055 33.748C20.8068 33.6005 20.7501 33.4584 20.6477 33.3523L15.9828 28.6875L23.625 28.6875C24.6689 28.6863 25.6697 28.2711 26.4079 27.5329C27.1461 26.7947 27.5613 25.7939 27.5625 24.75L27.5625 23.4102L33.4985 26.3784C33.5844 26.4213 33.6796 26.4415 33.7755 26.4372C33.8712 26.4329 33.9644 26.4041 34.0459 26.3536C34.1274 26.3032 34.1948 26.2327 34.2414 26.149C34.2881 26.0652 34.3126 25.9709 34.3125 25.875L34.3125 15.75C34.3124 15.6542 34.288 15.56 34.2413 15.4763C34.1946 15.3926 34.1274 15.3223 34.0459 15.2719ZM26.4375 24.75C26.4366 25.4957 26.14 26.2105 25.6127 26.7377C25.0855 27.265 24.3707 27.5616 23.625 27.5625L5.625 27.5625C4.87933 27.5616 4.16449 27.265 3.63727 26.7377C3.10999 26.2105 2.81342 25.4957 2.8125 24.75L2.8125 16.875C2.81342 16.1293 3.10999 15.4145 3.63727 14.8873C4.16449 14.36 4.87933 14.0634 5.625 14.0625L23.625 14.0625C24.3707 14.0634 25.0855 14.36 25.6127 14.8873C26.14 15.4145 26.4366 16.1293 26.4375 16.875L26.4375 24.75ZM33.1875 24.9649L27.5625 22.1524L27.5625 19.4727L33.1875 16.6602L33.1875 24.9649ZM20.25 11.8125C21.2513 11.8125 22.23 11.5156 23.0626 10.9593C23.8951 10.403 24.5439 9.61237 24.9271 8.68732C25.3103 7.76227 25.4106 6.74438 25.2152 5.76233C25.0199 4.78033 24.5377 3.8783 23.8297 3.17029C23.1217 2.46228 22.2197 1.9801 21.2377 1.78479C20.2556 1.58942 19.2377 1.6897 18.3127 2.07288C17.3876 2.45605 16.597 3.10492 16.0407 3.93744C15.4844 4.76996 15.1875 5.74872 15.1875 6.75C15.189 8.09222 15.7228 9.37903 16.6719 10.3281C17.621 11.2772 18.9078 11.811 20.25 11.8125ZM20.25 2.8125C21.0287 2.8125 21.79 3.04346 22.4376 3.47607C23.0851 3.90875 23.5898 4.52368 23.8878 5.24316C24.1858 5.96265 24.2638 6.75439 24.1118 7.51819C23.9599 8.28198 23.5849 8.98358 23.0342 9.53424C22.4836 10.0849 21.782 10.4599 21.0182 10.6118C20.2544 10.7638 19.4626 10.6858 18.7432 10.3878C18.0237 10.0898 17.4088 9.58508 16.9761 8.93756C16.5435 8.29004 16.3125 7.52875 16.3125 6.75C16.3137 5.70605 16.7289 4.70526 17.4671 3.9671C18.2053 3.22894 19.2061 2.81372 20.25 2.8125ZM9 11.8125C9.77875 11.8125 10.54 11.5815 11.1876 11.1489C11.8351 10.7162 12.3398 10.1013 12.6378 9.38184C12.9358 8.66235 13.0138 7.87061 12.8618 7.10681C12.7099 6.34302 12.3349 5.64142 11.7842 5.09076C11.2336 4.5401 10.532 4.1651 9.76819 4.01318C9.00439 3.86121 8.21265 3.93921 7.49316 4.23724C6.77368 4.53522 6.15875 5.03992 5.72607 5.68744C5.29346 6.33496 5.0625 7.09625 5.0625 7.875C5.06372 8.91895 5.47894 9.91974 6.2171 10.6579C6.95526 11.3961 7.95605 11.8113 9 11.8125ZM9 5.0625C9.55627 5.0625 10.1 5.22748 10.5626 5.5365C11.025 5.84552 11.3856 6.28479 11.5984 6.79871C11.8113 7.31262 11.867 7.87811 11.7585 8.42371C11.65 8.96924 11.3821 9.4704 10.9887 9.86377C10.5954 10.2571 10.0942 10.525 9.54871 10.6335C9.00311 10.742 8.43762 10.6863 7.92371 10.4734C7.40979 10.2606 6.97052 9.90009 6.6615 9.43756C6.35248 8.97504 6.1875 8.43127 6.1875 7.875C6.18842 7.12933 6.48499 6.41449 7.01227 5.88727C7.53949 5.35999 8.25433 5.06342 9 5.0625Z" fill="#FFFFFF" fill-opacity="1.000000" fill-rule="nonzero"/>
	</g>
</svg>
